<?xml version="1.0" encoding="UTF-8"?>
<svg width="1200pt" height="1200pt" version="1.1" viewBox="0 0 1200 1200" xmlns="http://www.w3.org/2000/svg">
    <path
        d="m1076.7 523.44-17.609-149.66c8.8711-5.2148 14.887-14.75 14.887-25.777 0-16.57-13.43-30-30-30-4.1172 0-8.043 0.83594-11.613 2.3359l-93.574-89.242c1.1641-3.1992 1.9023-6.6094 1.9023-10.211 0-16.57-13.43-30-30-30-8.582 0-16.27 3.6484-21.738 9.4219l-115.18-41.453c-1.0625-15.605-13.926-27.973-29.797-27.973-12.582 0-23.32 7.7656-27.773 18.75l-127.32 3.4531c-5.3867-8.0039-14.527-13.273-24.902-13.273-16.57 0-30 13.434-30 30 0 0.21484 0.058594 0.41016 0.0625 0.625l-109.2 68.766c-4.8047-3.2773-10.605-5.1992-16.863-5.1992-16.57 0-30 13.43-30 30 0 1.0742 0.20703 2.0938 0.31641 3.1406l-122.6 70.059c-5.2305-4.4258-11.902-7.1992-19.289-7.1992-16.566 0-30 13.43-30 30 0 6.4961 2.1133 12.469 5.6211 17.379l-65.566 120.87c-0.83203-0.070312-1.6328-0.25-2.4844-0.25-16.57 0-30 13.43-30 30 0 16.566 13.43 30 30 30 2.2578 0 4.4375-0.29297 6.5547-0.76562l99.586 135.8c-2.5625 4.418-4.1406 9.4844-4.1406 14.965 0 16.566 13.43 30 30 30 12.297 0 22.832-7.4141 27.469-18h185.07c4.6328 10.586 15.168 18 27.465 18 3.2305 0 6.2812-0.64062 9.1953-1.5859l251.62 283.07c-1.7656 3.8203-2.8164 8.0352-2.8164 12.52 0 16.566 13.43 30 30 30s30-13.434 30-30c0-12.297-7.4141-22.836-18-27.469v-161.06c10.586-4.6367 18-15.172 18-27.469 0-1.6133-0.23047-3.168-0.47656-4.7109l121.85-78.332c4.7656 3.1797 10.477 5.043 16.629 5.043 16.57 0 30-13.434 30-30 0-6.3633-2.0117-12.242-5.3906-17.098l67.273-109.32c1.3555 0.1875 2.707 0.41406 4.1172 0.41406 16.57 0 30-13.434 30-30 0-13.512-8.9922-24.805-21.277-28.559zm-30.27 7.75-158.62-58.918c-0.050781-0.85156-0.13672-1.6875-0.25391-2.5195l140.61-96.363c2.1914 1.3672 4.582 2.3984 7.1016 3.168l17.609 149.66c-2.3633 1.3867-4.5508 3.0117-6.4375 4.9688zm-263.94 263.93-236.68-88.75c-0.070313-1.2812-0.15625-2.5586-0.38281-3.793l153.78-103.96c4.1328 2.6172 8.9453 4.1875 14.117 4.5117l69.949 191.23c-0.26562 0.25391-0.53516 0.49609-0.78906 0.75781zm-328.07-247.4c0.98828-1.125 1.9375-2.2734 2.75-3.5352l226.18 36.191-151.38 102.32c-4.6406-2.9375-10.098-4.6992-15.996-4.6992-0.24609 0-0.47656 0.066406-0.72266 0.074219zm-27.621-260.54 215.41 75.141c0.09375 1.2109 0.12891 2.4414 0.36328 3.6055l-195.04 136.53c-1.8984-1.1602-3.9336-2.0703-6.0781-2.7891l-19.047-209.52c1.5586-0.85938 3.0195-1.8438 4.3945-2.9609zm466.25-42.137c0.10547 0.078125 0.19141 0.17188 0.29688 0.24609l-41.512 199.34c-4.0273 0.83984-7.7383 2.5078-11 4.7852l-139.27-85.359c0.18359-1.3398 0.41016-2.6719 0.41016-4.0625 0-1.1641-0.21484-2.2656-0.34375-3.3945zm-236.63 140.49c2.8242 1.7266 5.9102 3.0547 9.2461 3.7734l32.324 159.5c-3.1719 2.2344-5.875 5.0586-7.9805 8.3281l-226.88-36.305zm74.609 162.39c-2.8906-1.8047-6.0781-3.1797-9.5156-3.918l-32.297-159.37 139.17 85.297c-0.18359 1.3398-0.41016 2.6719-0.41016 4.0625 0 2.3828 0.34766 4.6719 0.87109 6.8906zm13.609 19.766 98.711-67.652c4.3438 2.4453 9.2852 3.957 14.625 3.957 0.41406 0 0.79297-0.10547 1.2031-0.12109l85.988 176.51-200.17-104.99c0.046874-0.69922 0.20703-1.3633 0.20703-2.0742 0-1.9258-0.21875-3.7969-0.56641-5.625zm269.9-214.07-139.1 95.332 41.383-198.71c1.8984-0.39453 3.7305-0.96484 5.4766-1.6992l93.578 89.246c-1.168 3.1992-1.9062 6.6094-1.9062 10.211 0 1.9258 0.21875 3.8008 0.56641 5.625zm-133.51-129.35-186.86 108.9 50.238-142.34c8.4023-0.12109 15.93-3.7031 21.301-9.3789l115.18 41.453c0.03125 0.46094 0.085937 0.91406 0.13672 1.3633zm-158.78-42.797-52.5 148.75c-0.19141 0.015625-0.38281 0.039063-0.57422 0.058594l-80.117-144.09c1.8203-2.7812 3.1367-5.8945 3.9531-9.2148l123.89-3.3594c1.375 2.9062 3.1641 5.5586 5.3477 7.8594zm-158.28 18.332c1.6875 0 3.3125-0.23047 4.9258-0.49609l77.273 138.98-208.36-72.684c0.027344-0.54297 0.16016-1.0547 0.16016-1.6055 0-1.5156-0.23047-2.9727-0.44531-4.4297l106.8-67.254c5.2734 4.6055 12.094 7.4922 19.648 7.4922zm-165.48 92.516 18.809 206.89-151.66-132.7c0.46875-2.1055 0.75781-4.2734 0.75781-6.5195 0-0.41406-0.10547-0.80078-0.12109-1.2109l123.87-70.781c2.5078 1.8672 5.3164 3.3047 8.3477 4.3164zm-162.09 97.676c5.4609 0 10.512-1.5703 14.926-4.1211l148.71 130.12h-228.59c-1.0039-2.2969-2.3516-4.375-3.8711-6.3281l65.117-120.05c1.2305 0.15625 2.4414 0.375 3.7148 0.375zm-64.961 150h233.07c0.12891 0.29297 0.32031 0.55469 0.45703 0.84375l-120.15 138.63c-2.8125-0.87109-5.7422-1.4766-8.8398-1.4766-2.2578 0-4.4375 0.29297-6.5547 0.76562l-99.586-135.8c0.5625-0.97266 1.1523-1.9258 1.6094-2.9648zm131.54 155.16 120.15-138.63c2.8125 0.87109 5.7422 1.4766 8.8398 1.4766 0.24609 0 0.47656-0.066406 0.72266-0.074219l60.832 130.35c-2.0312 2.3125-3.7734 4.8672-5.0234 7.7227h-185.06c-0.12891-0.29688-0.32031-0.55469-0.45703-0.84375zm471.15 122.48c0.63672 11.578 7.7305 21.414 17.836 25.836v156.97l-234.82-264.18zm31.715-31.445-68.695-187.8 205.03 107.54c-0.050782 0.69531-0.21094 1.3594-0.21094 2.0703 0 1.6133 0.23047 3.168 0.47656 4.7109l-121.85 78.332c-4.2617-2.8438-9.3242-4.5117-14.746-4.8555zm166.12-108.19c-0.41406 0-0.79297 0.10547-1.2031 0.12109l-88.879-182.43 156.25 58.039c0.32812 5.6914 2.1523 10.969 5.2188 15.371l-67.273 109.32c-1.3555-0.1875-2.707-0.41406-4.1172-0.41406z" />
</svg>