<svg xmlns="http://www.w3.org/2000/svg" version="1.1" viewBox="-5.0 -10.0 110.0 135.0">
 <path d="m62.07 18.254c-0.53125-0.003906-1.043 0.20703-1.418 0.58203s-0.58594 0.88672-0.58594 1.418 0.21094 1.0391 0.58594 1.4141 0.88672 0.58594 1.418 0.58594h12.852l-24.273 24.273c-0.77734 0.78125-0.77734 2.043 0 2.8242 0.78125 0.78125 2.0469 0.78125 2.8281 0l24.27-24.27v12.852c0 0.53125 0.21094 1.0391 0.58594 1.4141s0.88672 0.58594 1.418 0.58594 1.0391-0.21094 1.4141-0.58594 0.58594-0.88281 0.58594-1.4141v-17.652c0-0.085938-0.007812-0.16797-0.015625-0.25-0.007813-0.070312-0.019531-0.13672-0.035156-0.20312v-0.019531c-0.003907 0-0.003907-0.003906-0.003907-0.003906-0.015624-0.066407-0.035156-0.13281-0.054687-0.19531-0.003906-0.007813-0.003906-0.011719-0.003906-0.015625-0.003907-0.003906-0.003907-0.007812-0.003907-0.011719-0.027343-0.066406-0.054687-0.13281-0.082031-0.19531-0.003906-0.003907-0.003906-0.003907-0.003906-0.003907-0.03125-0.066406-0.066406-0.12891-0.10547-0.19141-0.078125-0.12891-0.17188-0.24609-0.27734-0.35547-0.007812-0.003907-0.011718-0.007813-0.019531-0.011719-0.17578-0.17188-0.37891-0.30859-0.60547-0.40234-0.019531-0.007813-0.039062-0.015625-0.058593-0.023437-0.23438-0.09375-0.48047-0.14453-0.73438-0.14453zm-32.688 8.918c-6.125 0-11.133 5.0078-11.133 11.133v32.316c0 6.125 5.0078 11.133 11.133 11.133h32.32c6.125 0 11.133-5.0078 11.133-11.133v-26.301h-0.003907c0-0.53125-0.21094-1.043-0.58594-1.418s-0.88281-0.58594-1.4141-0.58594-1.043 0.21094-1.418 0.58594-0.58594 0.88672-0.58203 1.418v26.301c0 3.9609-3.168 7.1289-7.1328 7.1289h-32.32c-3.9609 0-7.1328-3.168-7.1289-7.1289v-32.316c0-3.9609 3.168-7.1289 7.1289-7.1328h26.305c0.53125 0 1.0391-0.21094 1.4141-0.58594s0.58594-0.88281 0.58594-1.4141-0.21094-1.043-0.58594-1.418-0.88281-0.58594-1.4141-0.58203z"/>
<text x="0.0" y="117.5" font-size="5.0" font-weight="bold" font-family="Arbeit Regular, Helvetica, Arial-Unicode, Arial, Sans-serif" fill="#000000">Created by iOktavDesign</text><text x="0.0" y="122.5" font-size="5.0" font-weight="bold" font-family="Arbeit Regular, Helvetica, Arial-Unicode, Arial, Sans-serif" fill="#000000">from Noun Project</text></svg>