<svg width="12" height="12" viewBox="0 0 12 12" fill="none" xmlns="http://www.w3.org/2000/svg">
<path d="M8.6508 2.89352L7.71617 3.86574C7.61232 3.97377 7.5604 4.10494 7.5604 4.25926C7.5604 4.41358 7.61232 4.54475 7.71617 4.65278C7.82002 4.7608 7.94612 4.81482 8.09448 4.81482H11.0764C11.2248 4.81482 11.3509 4.7608 11.4547 4.65278C11.5585 4.54475 11.6105 4.41358 11.6105 4.25926V1.15741C11.6105 1.00309 11.5585 0.871914 11.4547 0.763889C11.3509 0.655864 11.2248 0.601852 11.0764 0.601852C10.928 0.601852 10.8019 0.655864 10.6981 0.763889L9.89698 1.59722C9.39257 1.08796 8.81399 0.694444 8.16123 0.416667C7.50848 0.138889 6.81863 0 6.09169 0C5.20157 0 4.37449 0.204475 3.61047 0.613426C2.84644 1.02238 2.20481 1.58179 1.68557 2.29167C1.16633 3.00154 0.825117 3.7963 0.661928 4.67593C0.647092 4.75309 0.665637 4.82639 0.71756 4.89583C0.769484 4.96528 0.839953 5 0.928965 5H2.19739C2.27157 5 2.33091 4.98071 2.37542 4.94213C2.41993 4.90355 2.4496 4.85339 2.46443 4.79167C2.67213 3.92747 3.11348 3.22145 3.78849 2.67361C4.46351 2.12577 5.23124 1.85185 6.09169 1.85185C6.56643 1.85185 7.02262 1.94059 7.46026 2.11806C7.89791 2.29552 8.29475 2.55401 8.6508 2.89352Z" fill="#F93131"/>
<path d="M1.19106 7.18519H4.17298C4.32133 7.18519 4.44743 7.2392 4.55128 7.34722C4.65513 7.45525 4.70705 7.58642 4.70705 7.74074C4.70705 7.89506 4.65513 8.02623 4.55128 8.13426L3.61665 9.10648C3.9727 9.44599 4.36955 9.70448 4.80719 9.88194C5.24484 10.0594 5.70103 10.1481 6.17576 10.1481C7.03621 10.1481 7.80395 9.87423 8.47896 9.32639C9.15397 8.77855 9.59533 8.07253 9.80302 7.20833C9.81786 7.1466 9.84753 7.09645 9.89203 7.05787C9.93654 7.01929 9.99588 7 10.0701 7H11.3385C11.4275 7 11.498 7.03472 11.5499 7.10417C11.6018 7.17361 11.6204 7.24691 11.6055 7.32407C11.4423 8.2037 11.1011 8.99846 10.5819 9.70833C10.0626 10.4182 9.42101 10.9776 8.65699 11.3866C7.89296 11.7955 7.06589 12 6.17576 12C5.44882 12 4.75898 11.8611 4.10622 11.5833C3.45346 11.3056 2.87488 10.912 2.37047 10.4028L1.56936 11.2361C1.46551 11.3441 1.33941 11.3981 1.19106 11.3981C1.0427 11.3981 0.916602 11.3441 0.812754 11.2361C0.708906 11.1281 0.656982 10.9969 0.656982 10.8426V7.74074C0.656982 7.58642 0.708906 7.45525 0.812754 7.34722C0.916602 7.2392 1.0427 7.18519 1.19106 7.18519Z" fill="#67D800"/>
</svg>
