<svg width="21" height="20" viewBox="0 0 21 20" fill="none" xmlns="http://www.w3.org/2000/svg">
    <g clip-path="url(#clip0_92_87)">
        <path
            d="M9.70562 19.9642C5.49167 19.6756 1.79115 16.3552 0.747002 12.3358C-0.216256 8.16761 1.69704 3.47393 5.4303 1.29823C7.83184 -0.135356 10.8446 -0.314563 13.5025 0.432088C16.7851 1.44032 19.2837 4.35977 20.1611 7.6176C20.9493 10.6191 20.3812 14.0269 18.2867 16.3927C16.3893 18.7537 13.3572 20.1146 10.3251 19.9927C10.1182 19.9885 9.91203 19.9789 9.70583 19.9644L9.70562 19.9642ZM12.2167 19.4917C12.973 19.4256 12.8401 19.1935 12.1523 19.1349C10.9234 18.8987 9.59699 18.8925 8.41099 19.3071C9.45514 19.8099 10.8418 19.6804 12.0105 19.5303L12.2167 19.4917ZM8.49403 18.8278C9.03374 18.2775 8.47119 16.962 7.99929 16.4413C6.94538 15.9041 6.12813 15.0253 5.16411 14.3627C4.43805 14.0989 3.72991 14.601 3.02814 14.7711C3.02503 15.464 2.97977 16.2464 3.59007 16.7285C4.59477 17.7196 5.80748 18.5888 7.17608 18.9834C7.61595 19.0034 8.07748 18.9772 8.49403 18.8278ZM14.2725 18.8553C16.021 18.1018 17.6616 16.8917 18.6476 15.2443C19.0026 14.7705 19.2635 13.9405 18.3363 14.2153C17.171 14.9468 16.1193 15.8525 14.9257 16.546C14.2019 17.1176 13.6809 17.9049 13.166 18.657C13.3453 19.0743 13.9286 18.9745 14.2725 18.8553ZM15.4578 15.829C16.3365 15.1086 17.609 14.6444 18.0706 13.5514C18.2788 12.6919 18.2954 11.8027 18.3819 10.926C17.5059 10.1498 16.4306 9.6229 15.3789 9.12564C14.3389 9.20897 13.4989 10.1305 12.6768 10.7283C12.2388 10.9694 12.3516 11.5121 12.2326 11.9288C12.0735 12.9012 11.8887 13.8717 11.7828 14.8524C12.6007 15.4564 13.5134 16.0115 14.5077 16.2443C14.8675 16.2492 15.1658 16.006 15.4578 15.829ZM9.18805 15.9806C9.98379 15.6768 11.0376 15.4482 11.4113 14.6059C11.688 13.4254 11.8424 12.2173 11.989 11.0155C11.1982 10.2641 10.3533 9.47207 9.31606 9.08018C8.42207 9.06641 7.66369 9.69797 6.86747 10.043C5.79641 10.333 5.42442 11.3062 5.37757 12.311C5.06336 13.3048 5.424 14.3255 6.32713 14.8731C7.11595 15.4537 8.13006 16.38 9.18805 15.9806ZM2.52468 14.5873C1.87882 13.3951 1.43341 12.0892 1.25558 10.7462C0.616854 10.8743 1.19739 12.4391 1.37342 13.0776C1.67456 13.9405 2.13525 14.7333 2.61297 15.5081C2.70037 15.1892 2.75212 14.8724 2.52468 14.5873ZM2.24652 9.27991C2.52855 8.8777 2.97749 8.56019 3.14667 8.10081C3.44524 6.71006 3.93231 5.36752 4.62889 4.12423C4.59948 3.32096 3.70071 2.83293 3.25323 3.71808C1.97804 5.35664 0.977766 7.35354 0.933758 9.46036C0.7661 10.1835 1.39632 10.709 1.75932 9.85362C1.922 9.66216 2.08433 9.47138 2.24652 9.27991ZM18.6664 10.2758C19.2068 9.5678 19.9534 8.72755 19.7597 7.76884C19.4213 5.9508 18.4858 4.22457 17.0486 3.03975C16.6224 2.85917 15.8426 2.19475 15.545 2.82232C15.1049 3.66546 14.011 4.4626 14.4054 5.51263C14.7431 6.54917 14.9894 7.63247 15.4821 8.6084C16.3885 9.31435 17.4382 9.86258 18.4934 10.3261L18.6664 10.2758ZM6.61062 9.80472C7.44739 9.38322 8.25973 8.91695 9.07623 8.45688C9.35093 7.49817 9.69621 6.56095 10.018 5.61787C10.0629 4.59807 9.15096 3.86533 8.54136 3.15016C7.94213 2.19344 6.92885 2.92721 6.1895 3.27716C4.56218 4.14434 4.1886 6.05336 3.63567 7.64694C3.7124 8.24337 4.26001 8.74133 4.65968 9.18762C5.21206 9.74067 5.83308 10.4804 6.61062 9.80472ZM12.6121 4.64973C13.0445 4.5905 13.5282 4.63388 13.9302 4.51164C14.5308 3.86595 15.0602 3.10945 15.3107 2.26073C15.0083 1.40519 14.007 1.0153 13.203 0.724109C12.1789 0.420021 11.0822 0.271111 10.0194 0.391253C9.25198 0.782237 7.8757 1.91679 8.65276 2.79623C9.22223 3.47242 9.82768 4.11686 10.4449 4.74987C11.1687 4.75697 11.8904 4.70055 12.6121 4.64973Z"
            fill="black" />
    </g>
    <defs>
        <clipPath id="clip0_92_87">
            <rect width="20" height="20" fill="white" transform="translate(0.5)" />
        </clipPath>
    </defs>
</svg>