<svg width="968" height="1080" viewBox="0 0 968 1080" fill="none" xmlns="http://www.w3.org/2000/svg">
<path fill-rule="evenodd" clip-rule="evenodd" d="M1138.19 552L452 1512H850.814L1290 897.571V552H1138.19Z" fill="#24292B"/>
<path fill-rule="evenodd" clip-rule="evenodd" d="M583.725 266H433L716.263 -132H867L583.725 266Z" fill="#24292B"/>
<path fill-rule="evenodd" clip-rule="evenodd" d="M730.344 954H639L810.663 715H902L730.344 954Z" fill="#24292B"/>
<path fill-rule="evenodd" clip-rule="evenodd" d="M721 651.539H870.043L1268.75 93.2425V-115.461L721 651.539Z" fill="#FDCA40"/>
<path fill-rule="evenodd" clip-rule="evenodd" d="M1222.63 -410L785 203H901.431L1291 -342.674V-410H1222.63Z" fill="#FDCA40"/>
<path fill-rule="evenodd" clip-rule="evenodd" d="M612.674 385H578L708.326 203H743L612.674 385Z" fill="#FDCA40"/>
<path fill-rule="evenodd" clip-rule="evenodd" d="M321.668 224H287L417.326 42H452L321.668 224Z" fill="#FDCA40"/>
<path fill-rule="evenodd" clip-rule="evenodd" d="M-69.326 476H-104L26.332 294H61L-69.326 476Z" fill="#FDCA40"/>
<path fill-rule="evenodd" clip-rule="evenodd" d="M787.27 246H732L939.73 -45H995L787.27 246Z" fill="white"/>
<path fill-rule="evenodd" clip-rule="evenodd" d="M147.268 624H92L299.726 333H355L147.268 624Z" fill="white"/>
<path fill-rule="evenodd" clip-rule="evenodd" d="M873.669 13H839L969.331 -169H1004L873.669 13Z" fill="#FDCA40"/>
<path fill-rule="evenodd" clip-rule="evenodd" d="M297.929 3L161 -122.039L354 -197L297.929 3Z" fill="#292B23"/>
<path fill-rule="evenodd" clip-rule="evenodd" d="M611 1100L435 1045.55L577.212 896L611 1100Z" fill="#24292B"/>
<path fill-rule="evenodd" clip-rule="evenodd" d="M172 242L-4 187.546L138.212 38L172 242Z" fill="#24292B"/>
<path fill-rule="evenodd" clip-rule="evenodd" d="M327.48 752L-403 1773H-203.474L527 752H327.48Z" fill="#FDCA40"/>
<path fill-rule="evenodd" clip-rule="evenodd" d="M-119.822 867H-156L176.822 400H213L-119.822 867Z" fill="#FDCA40"/>
<path fill-rule="evenodd" clip-rule="evenodd" d="M268.632 1117H234L494.368 752H529L268.632 1117Z" fill="white"/>
<path fill-rule="evenodd" clip-rule="evenodd" d="M172 893L109 873.788L159.904 821L172 893Z" fill="#FDCA40"/>
<path fill-rule="evenodd" clip-rule="evenodd" d="M74 172L11 152.782L61.9038 100L74 172Z" fill="#FDCA40"/>
<path fill-rule="evenodd" clip-rule="evenodd" d="M-19 898H15.5379L203 635.379V587L-19 898Z" fill="#FDCA40"/>
</svg>
