<svg width="342" height="146" viewBox="0 0 342 146" fill="none" xmlns="http://www.w3.org/2000/svg">
<path opacity="0.184547" d="M38.5404 145.076C28.8524 145.076 21.1827 143.058 15.5314 139.021C9.99541 134.984 6.01641 129.333 3.59441 122.067C1.28774 114.686 0.13441 106.209 0.13441 96.636V49.58C0.13441 39.6613 1.40308 31.069 3.94041 23.803C6.47774 16.537 10.8027 10.9433 16.9154 7.022C23.1434 2.98533 31.5627 0.966993 42.1734 0.966993C52.5534 0.966993 60.6844 2.69699 66.5664 6.157C72.5637 9.617 76.8311 14.4033 79.3684 20.516C81.9057 26.6287 83.1744 33.7793 83.1744 41.968V50.964H52.8994V39.546C52.8994 36.5473 52.6687 33.7793 52.2074 31.242C51.8614 28.7047 50.9387 26.6863 49.4394 25.187C48.0554 23.5723 45.7487 22.765 42.5194 22.765C39.1747 22.765 36.7527 23.6877 35.2534 25.533C33.7541 27.263 32.7737 29.4543 32.3124 32.107C31.9664 34.7597 31.7934 37.5277 31.7934 40.411V105.286C31.7934 108.4 32.0817 111.341 32.6584 114.109C33.3504 116.762 34.5037 118.953 36.1184 120.683C37.8484 122.298 40.2704 123.105 43.3844 123.105C46.6137 123.105 49.0934 122.24 50.8234 120.51C52.5534 118.78 53.7644 116.531 54.4564 113.763C55.1484 110.995 55.4944 108.054 55.4944 104.94V88.505H42.8654V70.34H83.3474V143H62.9334L61.2034 131.409C59.3581 135.33 56.6477 138.617 53.0724 141.27C49.4971 143.807 44.6531 145.076 38.5404 145.076ZM144.306 145.076C133.811 145.076 125.507 143.231 119.394 139.54C113.282 135.849 108.899 130.544 106.246 123.624C103.594 116.704 102.267 108.458 102.267 98.885V46.812C102.267 37.124 103.594 28.8777 106.246 22.073C108.899 15.2683 113.282 10.0783 119.394 6.50299C125.507 2.81233 133.811 0.966993 144.306 0.966993C154.917 0.966993 163.279 2.81233 169.391 6.50299C175.619 10.0783 180.06 15.2683 182.712 22.073C185.365 28.8777 186.691 37.124 186.691 46.812V98.885C186.691 108.458 185.365 116.704 182.712 123.624C180.06 130.544 175.619 135.849 169.391 139.54C163.279 143.231 154.917 145.076 144.306 145.076ZM144.306 123.105C147.536 123.105 149.9 122.298 151.399 120.683C152.899 119.068 153.879 116.992 154.34 114.455C154.802 111.918 155.032 109.323 155.032 106.67V39.2C155.032 36.432 154.802 33.837 154.34 31.415C153.879 28.8777 152.899 26.8017 151.399 25.187C149.9 23.5723 147.536 22.765 144.306 22.765C141.308 22.765 139.059 23.5723 137.559 25.187C136.06 26.8017 135.08 28.8777 134.618 31.415C134.157 33.837 133.926 36.432 133.926 39.2V106.67C133.926 109.323 134.099 111.918 134.445 114.455C134.907 116.992 135.829 119.068 137.213 120.683C138.713 122.298 141.077 123.105 144.306 123.105ZM198.205 143L224.674 2.86999H259.966L286.089 143H257.544L252.873 113.417H232.286L227.442 143H198.205ZM235.054 94.906H249.932L242.493 40.238L235.054 94.906ZM301.679 143V2.86999H332.646V122.067H364.824V143H301.679Z" fill="currentColor"/>
</svg>
